Patient4_TMGait_0pt8_01_right_08_GRF.mot
version=1
nRows=46
nColumns=19
inDegrees=no
endheader
time	F1x	F1y	F1z	M1x	M1y	M1z	F2x	F2y	F2z	M2x	M2y	M2z	EC1x	EC1y	EC1z	EC2x	EC2y	EC2z
8.74	15.8754	747.2321	42.6631	-290.5875	-39.085	793.8258	-9.2453	13.9608	-5.5792	4.0253	5.1776	28.6087	-0.0592	0.0182	-0.0073	-0.0462	0.0165	0.9585
8.7511	12.441	742.8036	45.3747	-288.8136	-42.3993	785.3996	-6.2957	10.5657	-3.7505	3.1602	3.5449	20.6269	-0.0592	0.0182	-0.0073	-0.0462	0.0165	0.9585
8.7621	9.7571	737.9381	47.5762	-286.6725	-44.9427	776.3021	-3.8449	7.716	-2.236	2.4417	2.2082	13.9143	-0.0592	0.0182	-0.0073	-0.0462	0.0165	0.9585
8.7732	8.0309	732.9535	49.1737	-284.27	-46.5807	767.047	-1.9754	5.5354	-1.0952	1.9024	1.2016	8.77	-0.0592	0.0182	-0.0073	-0.0462	0.0165	0.9585
8.7843	7.3098	728.1422	50.2211	-281.7335	-47.3642	758.027	-0.72632	4.0523	-0.334	1.5452	0.54265	5.2485	-0.0592	0.0182	-0.0073	-0.0462	0.0165	0.9585
8.7954	7.5562	723.753	50.8302	-279.1858	-47.4191	749.53	0.039724	3.1242	0.11506	1.3332	0.15836	3.0547	-0.0592	0.0182	-0.0073	-0.0462	0.0165	0.9585
8.8064	8.6595	719.9991	51.1693	-276.7347	-46.9347	741.7575	0.38798	2.6427	0.316	1.232	0.006845	1.933	-0.0592	0.0182	-0.0073	-0.0462	0.0165	0.9585
8.8175	10.5263	717.0417	51.3245	-274.4625	-46.0173	734.8256	0.47151	2.4225	0.3486	1.188	0.013459	1.4803	-0.0592	0.0182	-0.0073	-0.0462	0.0165	0.9585
8.8286	13.0293	714.9825	51.4476	-272.4164	-44.8376	728.7847	0.34499	2.3262	0.27773	1.1543	0.1376	1.4109	-0.0592	0.0182	-0.0073	-0.0462	0.0165	0.9585
8.8396	16.0727	713.874	51.622	-270.6218	-43.5007	723.6407	0.11355	2.183	0.13954	1.0753	0.34493	1.3898	-0.0592	0.0182	-0.0073	-0.0462	0.0165	0.9585
8.8507	19.5311	713.7493	51.9994	-269.0855	-42.1917	719.4201	-0.19264	1.8748	-0.024031	0.90771	0.60226	1.2084	-0.0592	0.0182	-0.0073	-0.0462	0.0165	0.9585
8.8618	23.2715	714.6427	52.6723	-267.8184	-41.0481	716.1197	-0.49872	1.263	-0.20877	0.60559	0.88939	0.64157	-0.0592	0.0182	-0.0073	-0.0462	0.0165	0.9585
8.8729	27.1634	716.6374	53.7081	-266.8562	-40.1833	713.8248	-0.76306	0.26715	-0.38823	0.14283	1.163	-0.43342	-0.0592	0.0182	-0.0073	-0.0462	0.0165	0.9585
8.8839	31.1163	719.88	55.1272	-266.2741	-39.6529	712.6723	-0.90798	-1.1637	-0.54876	-0.49301	1.3733	-2.0864	-0.0592	0.0182	-0.0073	-0.0462	0.0165	0.9585
8.895	35.0585	724.5304	56.8914	-266.1631	-39.4475	712.8143	-0.83944	-2.9763	-0.64674	-1.2735	1.4204	-4.2588	-0.0592	0.0182	-0.0073	-0.0462	0.0165	0.9585
8.9061	38.9702	730.67	58.9818	-266.5892	-39.5596	714.3208	-0.43735	-4.9669	-0.61811	-2.1093	1.1692	-6.7095	-0.0592	0.0182	-0.0073	-0.0462	0.0165	0.9585
8.9171	42.8496	738.2515	61.3131	-267.5724	-39.9079	717.1208	0.47066	-6.7307	-0.38506	-2.8227	0.45184	-8.9346	-0.0592	0.0182	-0.0073	-0.0462	0.0165	0.9585
8.9282	46.7131	747.0625	63.8263	-269.0665	-40.4201	720.9929	2.0359	-7.5446	0.15403	-3.1102	-0.9205	-10.0157	-0.0592	0.0182	-0.0073	-0.0462	0.0165	0.9585
8.9393	50.5769	756.6602	66.4236	-270.9412	-40.9876	725.4934	4.4213	-6.3556	1.1184	-2.5276	-3.1534	-8.6316	-0.0592	0.0182	-0.0073	-0.0462	0.0165	0.9585
8.9504	54.4312	766.3524	69.0197	-272.9706	-41.5245	729.957	7.6672	-1.6825	2.6237	-0.46658	-6.4021	-2.8974	-0.0592	0.0182	-0.0073	-0.0462	0.0165	0.9585
8.9614	58.2983	775.1751	71.4934	-274.8326	-41.9156	733.4909	11.7017	8.2301	4.736	3.797	-10.7012	9.3942	-0.0592	0.0182	-0.0073	-0.0462	0.0165	0.9585
8.9725	62.1814	781.9587	73.6939	-276.1297	-42.0319	735.0472	16.106	25.3341	7.4299	11.0504	-15.8314	30.7399	-0.0592	0.0182	-0.0073	-0.0462	0.0165	0.9585
8.9836	66.0909	785.3352	75.4218	-276.3946	-41.7124	733.4287	20.1039	51.2599	10.4708	21.9478	-21.155	63.2188	-0.0592	0.0182	-0.0073	-0.0462	0.0165	0.9585
8.9946	69.9744	783.8001	76.4056	-275.1118	-40.7561	727.3456	22.2351	86.8542	13.3669	36.7906	-25.4453	107.9541	-0.0592	0.0182	-0.0073	-0.0462	0.0165	0.9585
9.0057	73.7013	775.7735	76.3388	-271.7416	-38.9652	715.4558	20.5936	131.3717	15.3338	55.2111	-26.9519	164.0579	-0.0592	0.0182	-0.0073	-0.0462	0.0165	0.9585
9.0168	77.0591	759.7477	74.8924	-265.7659	-36.1541	696.5203	13.6852	182.3427	15.3845	76.1069	-23.8682	228.5139	-0.0592	0.0182	-0.0073	-0.0462	0.0165	0.9585
9.0279	79.6886	734.4098	71.8094	-256.7242	-32.2523	669.491	2.1104	236.0221	12.6116	97.8673	-15.3872	296.5697	-0.0592	0.0182	-0.0073	-0.0462	0.0165	0.9585
9.0389	81.1438	698.8351	66.9828	-244.2748	-27.353	633.6809	-12.1164	288.1367	7.0735	118.7487	-2.4439	362.6052	-0.0592	0.0182	-0.0073	-0.0462	0.0165	0.9585
9.05	80.935	652.712	60.5297	-228.2742	-21.7517	588.958	-26.7876	335.8267	-0.57445	137.6546	13.1468	422.6143	-0.0592	0.0182	-0.0073	-0.0462	0.0165	0.9585
9.0611	78.6443	596.5893	52.7786	-208.8627	-15.8932	535.9186	-40.3344	379.6835	-9.0132	154.8758	29.1194	477.0097	-0.0592	0.0182	-0.0073	-0.0462	0.0165	0.9585
9.0721	73.981	531.9395	44.2277	-186.4941	-10.3014	475.9696	-51.7502	421.7586	-17.0862	171.3154	43.6798	528.1524	-0.0592	0.0182	-0.0073	-0.0462	0.0165	0.9585
9.0832	66.9146	461.0226	35.51	-161.9036	-5.5143	411.1245	-60.3062	463.668	-24.2255	187.6847	55.8087	577.9909	-0.0592	0.0182	-0.0073	-0.0462	0.0165	0.9585
9.0943	57.6012	386.8702	27.1998	-136.1055	-1.9304	344.0719	-65.6889	505.8235	-29.8246	204.2005	64.6997	627.0046	-0.0592	0.0182	-0.0073	-0.0462	0.0165	0.9585
9.1054	46.5913	313.0243	19.8057	-110.3206	0.23855	277.8523	-67.9127	547.4089	-34.063	220.5449	70.5492	674.222	-0.0592	0.0182	-0.0073	-0.0462	0.0165	0.9585
9.1164	34.7349	243.2142	13.6678	-85.8555	1.0414	215.6565	-67.3421	587.2078	-37.2195	236.2069	73.8815	718.2504	-0.0592	0.0182	-0.0073	-0.0462	0.0165	0.9585
9.1275	23.2264	180.6772	8.936	-63.8675	0.79581	160.1747	-64.5995	624.0414	-39.8308	250.6713	75.6099	757.8405	-0.0592	0.0182	-0.0073	-0.0462	0.0165	0.9585
9.1386	13.1432	127.58	5.5759	-45.1451	-0.06797	113.2024	-60.4538	657.1149	-42.3787	263.5676	76.6334	792.286	-0.0592	0.0182	-0.0073	-0.0462	0.0165	0.9585
9.1496	5.2414	84.7237	3.355	-30.0029	-1.0818	75.3309	-55.6702	686.0047	-45.118	274.6891	77.5915	821.3424	-0.0592	0.0182	-0.0073	-0.0462	0.0165	0.9585
9.1607	-0.26077	51.8285	1.9631	-18.3644	-1.9091	46.3004	-50.9285	710.6462	-48.2673	283.9756	78.9942	845.1843	-0.0592	0.0182	-0.0073	-0.0462	0.0165	0.9585
9.1718	-3.5143	27.9431	1.1064	-9.9087	-2.3585	25.2441	-46.7316	731.1309	-51.6291	291.4603	80.8313	864.0982	-0.0592	0.0182	-0.0073	-0.0462	0.0165	0.9585
9.1829	-4.8974	11.8087	0.55393	-4.1924	-2.3732	11.0503	-43.4095	747.6325	-55.0182	297.2156	83.0001	878.4492	-0.0592	0.0182	-0.0073	-0.0462	0.0165	0.9585
9.1939	-4.9389	1.9424	0.20126	-0.69399	-2.0631	2.3861	-41.0212	760.3737	-58.0396	301.352	85.0894	888.5837	-0.0592	0.0182	-0.0073	-0.0462	0.0165	0.9585
9.205	-4.2604	-3.1537	-0.0075512	1.1211	-1.6104	-2.0653	-39.4709	769.5943	-60.4523	303.9833	86.7833	894.8555	-0.0592	0.0182	-0.0073	-0.0462	0.0165	0.9585
9.2161	-3.2755	-4.9849	-0.082078	1.7832	-1.1675	-3.6418	-38.5516	775.4109	-62.1594	305.1787	87.8945	897.422	-0.0592	0.0182	-0.0073	-0.0462	0.0165	0.9585
9.2271	-2.2711	-4.7975	-0.092197	1.7284	-0.77751	-3.451	-38.0506	777.8345	-63.2224	304.9613	88.4161	896.3121	-0.0592	0.0182	-0.0073	-0.0462	0.0165	0.9585
9.2382	-1.395	-3.571	-0.043377	1.2989	-0.49224	-2.3631	-37.7663	776.8577	-63.8466	303.3542	88.4978	891.5102	-0.0592	0.0182	-0.0073	-0.0462	0.0165	0.9585
